<mxfile host="app.diagrams.net" agent="Mozilla/5.0 (Windows NT 10.0; Win64; x64) AppleWebKit/537.36 (KHTML, like Gecko) Chrome/127.0.0.0 Safari/537.36" version="24.7.7">
  <diagram name="‫עמוד-1‬" id="RxYZaycGBdoJBNL9fLf0">
    <mxGraphModel dx="1257" dy="669" grid="1" gridSize="10" guides="1" tooltips="1" connect="1" arrows="1" fold="1" page="1" pageScale="1" pageWidth="827" pageHeight="1169" math="0" shadow="0">
      <root>
        <mxCell id="0" />
        <mxCell id="1" parent="0" />
        <mxCell id="4XfOmVH22FHidTBxlW36-33" value="" style="edgeStyle=orthogonalEdgeStyle;rounded=0;orthogonalLoop=1;jettySize=auto;html=1;" edge="1" parent="1" source="4XfOmVH22FHidTBxlW36-1" target="4XfOmVH22FHidTBxlW36-28">
          <mxGeometry relative="1" as="geometry" />
        </mxCell>
        <mxCell id="4XfOmVH22FHidTBxlW36-1" value="start" style="rounded=1;whiteSpace=wrap;html=1;" vertex="1" parent="1">
          <mxGeometry x="280" y="80" width="120" height="50" as="geometry" />
        </mxCell>
        <mxCell id="4XfOmVH22FHidTBxlW36-35" value="" style="edgeStyle=orthogonalEdgeStyle;rounded=0;orthogonalLoop=1;jettySize=auto;html=1;" edge="1" parent="1" source="4XfOmVH22FHidTBxlW36-28" target="4XfOmVH22FHidTBxlW36-29">
          <mxGeometry relative="1" as="geometry" />
        </mxCell>
        <mxCell id="4XfOmVH22FHidTBxlW36-28" value="x: int&lt;div&gt;&#39;how are you&#39;&lt;/div&gt;" style="shape=card;whiteSpace=wrap;html=1;" vertex="1" parent="1">
          <mxGeometry x="280" y="170" width="120" height="70" as="geometry" />
        </mxCell>
        <mxCell id="4XfOmVH22FHidTBxlW36-36" value="" style="edgeStyle=orthogonalEdgeStyle;rounded=0;orthogonalLoop=1;jettySize=auto;html=1;" edge="1" parent="1" source="4XfOmVH22FHidTBxlW36-29" target="4XfOmVH22FHidTBxlW36-30">
          <mxGeometry relative="1" as="geometry" />
        </mxCell>
        <mxCell id="4XfOmVH22FHidTBxlW36-29" value="print(x)" style="shape=document;whiteSpace=wrap;html=1;boundedLbl=1;" vertex="1" parent="1">
          <mxGeometry x="280" y="270" width="120" height="80" as="geometry" />
        </mxCell>
        <mxCell id="4XfOmVH22FHidTBxlW36-37" value="" style="edgeStyle=orthogonalEdgeStyle;rounded=0;orthogonalLoop=1;jettySize=auto;html=1;" edge="1" parent="1" source="4XfOmVH22FHidTBxlW36-30" target="4XfOmVH22FHidTBxlW36-31">
          <mxGeometry relative="1" as="geometry" />
        </mxCell>
        <mxCell id="4XfOmVH22FHidTBxlW36-30" value="print(x)" style="shape=document;whiteSpace=wrap;html=1;boundedLbl=1;" vertex="1" parent="1">
          <mxGeometry x="280" y="390" width="120" height="80" as="geometry" />
        </mxCell>
        <mxCell id="4XfOmVH22FHidTBxlW36-38" value="" style="edgeStyle=orthogonalEdgeStyle;rounded=0;orthogonalLoop=1;jettySize=auto;html=1;" edge="1" parent="1" source="4XfOmVH22FHidTBxlW36-31" target="4XfOmVH22FHidTBxlW36-32">
          <mxGeometry relative="1" as="geometry" />
        </mxCell>
        <mxCell id="4XfOmVH22FHidTBxlW36-31" value="print(x)" style="shape=document;whiteSpace=wrap;html=1;boundedLbl=1;" vertex="1" parent="1">
          <mxGeometry x="280" y="500" width="120" height="80" as="geometry" />
        </mxCell>
        <mxCell id="4XfOmVH22FHidTBxlW36-32" value="end" style="rounded=1;whiteSpace=wrap;html=1;" vertex="1" parent="1">
          <mxGeometry x="280" y="620" width="120" height="60" as="geometry" />
        </mxCell>
      </root>
    </mxGraphModel>
  </diagram>
</mxfile>
